<svg xmlns="http://www.w3.org/2000/svg" shape-rendering="geometricPrecision" text-rendering="geometricPrecision" image-rendering="optimizeQuality" fill-rule="evenodd" clip-rule="evenodd" viewBox="0 0 1000 597.02"><path fill="gray" fill-rule="nonzero" d="M94.1 0h811.8c25.89 0 49.42 10.58 66.47 27.63C989.42 44.68 1000 68.21 1000 94.1v408.82c0 25.89-10.59 49.42-27.63 66.47-17.05 17.05-40.58 27.63-66.47 27.63H94.1c-25.89 0-49.42-10.58-66.47-27.63C10.59 552.34 0 528.82 0 502.92V94.1c0-25.89 10.58-49.42 27.63-66.47C44.68 10.58 68.21 0 94.1 0zm811.8 32.43H94.1c-16.94 0-32.36 6.95-43.54 18.13S32.43 77.16 32.43 94.1v408.82c0 16.94 6.95 32.35 18.13 43.54 11.19 11.18 26.6 18.13 43.54 18.13h811.8c16.94 0 32.35-6.95 43.54-18.13 11.18-11.19 18.13-26.6 18.13-43.54V94.1c0-16.94-6.95-32.35-18.13-43.54-11.19-11.18-26.6-18.13-43.54-18.13z"/><path fill="#635BFF" d="M811.73 302.84c0-44.33-21.48-79.32-62.52-79.32-41.22 0-66.16 34.99-66.16 78.97 0 52.13 29.45 78.45 71.7 78.45 20.61 0 36.2-4.67 47.98-11.25v-34.64c-11.78 5.89-25.29 9.53-42.43 9.53-16.8 0-31.7-5.89-33.6-26.33h84.69c0-2.25.34-11.25.34-15.41zm-85.55-16.45c0-19.57 11.95-27.71 22.86-27.71 10.56 0 21.82 8.14 21.82 27.71h-44.68zm-109.97-62.87c-16.98 0-27.89 7.97-33.95 13.51l-2.25-10.74h-38.1v201.93l43.29-9.18.18-49.01c6.23 4.51 15.41 10.91 30.65 10.91 31 0 59.23-24.94 59.23-79.83-.17-50.22-28.75-77.59-59.05-77.59zm-10.39 119.32c-10.22 0-16.28-3.63-20.44-8.14l-.18-64.24c4.51-5.03 10.74-8.49 20.62-8.49 15.75 0 26.66 17.66 26.66 40.35 0 23.21-10.73 40.52-26.66 40.52zM482.34 213.31l43.47-9.35V168.8l-43.47 9.18v35.33zm0 13.16h43.47V378h-43.47V226.47zm-46.59 12.81l-2.77-12.81h-37.41V378h43.3V275.3c10.21-13.33 27.53-10.91 32.9-9v-39.83c-5.54-2.08-25.81-5.89-36.02 12.81zm-86.59-50.39l-42.26 9.01-.17 138.71c0 25.63 19.22 44.51 44.85 44.51 14.2 0 24.59-2.6 30.31-5.72v-35.15c-5.54 2.25-32.91 10.21-32.91-15.42v-61.47h32.91v-36.89h-32.91l.18-37.58zm-117.08 81.57c0-6.76 5.55-9.35 14.73-9.35 13.16 0 29.78 3.98 42.95 11.08v-40.7c-14.38-5.71-28.58-7.97-42.95-7.97-35.16 0-58.54 18.36-58.54 49.01 0 47.8 65.81 40.18 65.81 60.79 0 7.97-6.93 10.56-16.63 10.56-14.37 0-32.73-5.88-47.27-13.85v41.21c16.1 6.93 32.38 9.88 47.27 9.88 36.03 0 60.79-17.84 60.79-48.84-.17-51.61-66.16-42.43-66.16-61.82z"/></svg>